# Blender v2.93.4 OBJ File: ''
# www.blender.org
mtllib froggy.mtl
o froggy.001
v 0.215173 0.064916 0.502070
v -0.502070 -0.508878 0.502070
v 0.502070 -0.508878 0.502070
v -0.215173 0.064916 0.502070
v 0.286897 0.136640 0.502070
v 0.215173 0.136640 0.502070
v -0.215173 0.136640 0.502070
v -0.286897 0.136640 0.502070
v 0.502070 0.208365 0.502070
v 0.358621 0.208365 0.502070
v 0.286897 0.208365 0.502070
v 0.215173 0.208365 0.502070
v -0.215173 0.208365 0.502070
v -0.286897 0.208365 0.502070
v -0.358621 0.208365 0.502070
v -0.502070 0.208365 0.502070
v 0.502070 0.280089 0.502070
v 0.358621 0.280089 0.502070
v -0.358621 0.280089 0.502070
v -0.502070 0.280089 0.502070
v 0.502070 0.423537 0.502070
v -0.502070 0.423537 0.502070
v 0.430346 0.638710 0.143449
v 0.358621 0.423537 0.143449
v 0.430346 0.423537 0.143449
v 0.358621 0.638710 0.143449
v 0.215173 0.423537 0.143449
v 0.215173 0.638710 0.143449
v 0.071724 0.423537 0.143449
v 0.071724 0.638710 0.143449
v -0.143449 0.638710 0.143449
v -0.215173 0.423537 0.143449
v -0.143449 0.423537 0.143449
v -0.215173 0.638710 0.143449
v -0.358621 0.423537 0.143449
v -0.358621 0.638710 0.143449
v -0.430346 0.423537 0.143449
v -0.430346 0.638710 0.143449
v 0.430346 0.423538 -0.286897
v 0.071724 0.423538 -0.286897
v 0.430346 0.638711 -0.286897
v 0.071724 0.638711 -0.286897
v -0.143449 0.423538 -0.286897
v -0.430346 0.423538 -0.286897
v -0.143449 0.638711 -0.286897
v -0.430346 0.638711 -0.286897
v 0.502070 -0.508878 -0.502070
v -0.502070 -0.508878 -0.502070
v 0.502070 0.423538 -0.502070
v -0.502070 0.423538 -0.502070
v 0.502070 0.208365 0.430346
v 0.502070 0.208365 0.502070
v 0.502070 -0.508878 0.502070
v 0.502070 0.280089 0.502070
v 0.502070 0.280089 0.430346
v 0.502070 0.423537 0.502070
v 0.502070 -0.508878 -0.502070
v 0.502070 0.423538 -0.502070
v 0.430346 0.423538 -0.286897
v 0.430346 0.638710 0.143449
v 0.430346 0.423537 0.143449
v 0.430346 0.638711 -0.286897
v -0.143449 0.423538 0.071724
v -0.143449 0.638710 0.143449
v -0.143449 0.423537 0.143449
v -0.143449 0.638710 0.071724
v -0.143449 0.423538 -0.286897
v -0.143449 0.638711 -0.286897
v 0.071724 0.423537 0.143449
v 0.071724 0.638710 0.143449
v 0.071724 0.423538 0.071724
v 0.071724 0.638710 0.071724
v 0.071724 0.423538 -0.286897
v 0.071724 0.638711 -0.286897
v -0.430346 0.423537 0.143449
v -0.430346 0.638710 0.143449
v -0.430346 0.423538 -0.286897
v -0.430346 0.638711 -0.286897
v -0.502070 -0.508878 0.502070
v -0.502070 0.208365 0.502070
v -0.502070 0.208365 0.430346
v -0.502070 0.280089 0.502070
v -0.502070 0.423537 0.502070
v -0.502070 0.280089 0.430346
v -0.502070 -0.508878 -0.502070
v -0.502070 0.423538 -0.502070
v -0.502070 -0.508878 0.502070
v 0.502070 -0.508878 -0.502070
v 0.502070 -0.508878 0.502070
v -0.502070 -0.508878 -0.502070
v 0.502070 0.423537 0.502070
v 0.502070 0.423538 -0.502070
v 0.430346 0.423537 0.143449
v 0.430346 0.423538 -0.286897
v 0.358621 0.423537 0.143449
v 0.215173 0.423537 0.143449
v 0.071724 0.423537 0.143449
v 0.071724 0.423538 -0.286897
v 0.071724 0.423538 0.071724
v -0.143449 0.423537 0.143449
v -0.143449 0.423538 0.071724
v -0.143449 0.423538 -0.286897
v -0.215173 0.423537 0.143449
v -0.358621 0.423537 0.143449
v -0.430346 0.423537 0.143449
v -0.430346 0.423538 -0.286897
v -0.502070 0.423537 0.502070
v -0.502070 0.423538 -0.502070
v 0.430346 0.638710 0.143449
v 0.430346 0.638711 -0.286897
v 0.358621 0.638710 0.143449
v 0.358621 0.638710 0.071724
v 0.215173 0.638710 0.143449
v 0.215173 0.638710 0.071724
v 0.071724 0.638710 0.143449
v 0.071724 0.638710 0.071724
v 0.071724 0.638711 -0.286897
v -0.143449 0.638710 0.143449
v -0.143449 0.638710 0.071724
v -0.215173 0.638710 0.143449
v -0.143449 0.638711 -0.286897
v -0.215173 0.638710 0.071724
v -0.358621 0.638710 0.143449
v -0.358621 0.638710 0.071724
v -0.430346 0.638710 0.143449
v -0.430346 0.638711 -0.286897
vt 0.748047 0.500000
vt 0.748047 0.500000
vt 0.748047 0.500000
vt 0.748047 0.500000
vt 0.748047 0.500000
vt 0.994141 0.500000
vt 0.994141 0.500000
vt 0.994141 0.500000
vt 0.748047 0.500000
vt 0.748047 0.500000
vt 0.994141 0.500000
vt 0.748047 0.500000
vt 0.748047 0.500000
vt 0.748047 0.500000
vt 0.994141 0.500000
vt 0.994141 0.500000
vt 0.748047 0.500000
vt 0.748047 0.500000
vt 0.994141 0.500000
vt 0.994141 0.500000
vt 0.994141 0.500000
vt 0.748047 0.500000
vt 0.748047 0.500000
vt 0.994141 0.500000
vt 0.748047 0.500000
vt 0.748047 0.500000
vt 0.052734 0.500000
vt 0.052734 0.500000
vt 0.052734 0.500000
vt 0.748047 0.500000
vt 0.052734 0.500000
vt 0.052734 0.500000
vt 0.052734 0.500000
vt 0.052734 0.500000
vt 0.748047 0.500000
vt 0.052734 0.500000
vt 0.748047 0.500000
vt 0.748047 0.500000
vt 0.748047 0.500000
vt 0.748047 0.500000
vt 0.748047 0.500000
vt 0.748047 0.500000
vt 0.748047 0.500000
vt 0.962891 0.500000
vt 0.962891 0.500000
vt 0.962891 0.500000
vt 0.748047 0.500000
vt 0.994141 0.500000
vt 0.994141 0.500000
vt 0.994141 0.500000
vt 0.962891 0.500000
vt 0.994141 0.500000
vt 0.994141 0.500000
vt 0.994141 0.500000
vt 0.994141 0.500000
vt 0.962891 0.500000
vt 0.962891 0.500000
vt 0.962891 0.500000
vt 0.994141 0.500000
vt 0.748047 0.500000
vt 0.748047 0.500000
vt 0.748047 0.500000
vt 0.962891 0.500000
vt 0.748047 0.500000
vt 0.748047 0.500000
vt 0.748047 0.500000
vt 0.748047 0.500000
vt 0.748047 0.500000
vt 0.748047 0.500000
vt 0.748047 0.500000
vt 0.748047 0.500000
vt 0.748047 0.500000
vt 0.748047 0.500000
vt 0.748047 0.500000
vt 0.748047 0.500000
vt 0.748047 0.500000
vt 0.748047 0.500000
vt 0.748047 0.500000
vt 0.748047 0.500000
vt 0.052734 0.500000
vt 0.052734 0.500000
vt 0.052734 0.500000
vt 0.748047 0.500000
vt 0.748047 0.500000
vt 0.748047 0.500000
vt 0.052734 0.500000
vt 0.748047 0.500000
vt 0.748047 0.500000
vt 0.748047 0.500000
vt 0.748047 0.500000
vt 0.748047 0.500000
vt 0.748047 0.500000
vt 0.994141 0.500000
vt 0.994141 0.500000
vt 0.994141 0.500000
vt 0.994141 0.500000
vt 0.748047 0.500000
vt 0.748047 0.500000
vt 0.748047 0.500000
vt 0.748047 0.500000
vt 0.994141 0.500000
vt 0.994141 0.500000
vt 0.994141 0.500000
vt 0.994141 0.500000
vt 0.748047 0.500000
vt 0.748047 0.500000
vt 0.748047 0.500000
vt 0.748047 0.500000
vt 0.748047 0.500000
vt 0.748047 0.500000
vt 0.748047 0.500000
vt 0.748047 0.500000
vt 0.748047 0.500000
vt 0.748047 0.500000
vt 0.748047 0.500000
vt 0.052734 0.500000
vt 0.052734 0.500000
vt 0.052734 0.500000
vt 0.748047 0.500000
vt 0.748047 0.500000
vt 0.748047 0.500000
vt 0.052734 0.500000
vt 0.748047 0.500000
vt 0.748047 0.500000
vt 0.748047 0.500000
vt 0.748047 0.500000
vt 0.748047 0.500000
vt 0.748047 0.500000
vt 0.748047 0.500000
vt 0.748047 0.500000
vt 0.748047 0.500000
vt 0.748047 0.500000
vt 0.748047 0.500000
vt 0.748047 0.500000
vt 0.748047 0.500000
vt 0.748047 0.500000
vt 0.748047 0.500000
vt 0.748047 0.500000
vt 0.748047 0.500000
vt 0.748047 0.500000
vt 0.748047 0.500000
vt 0.748047 0.500000
vt 0.748047 0.500000
vt 0.748047 0.500000
vt 0.748047 0.500000
vt 0.748047 0.500000
vt 0.748047 0.500000
vt 0.748047 0.500000
vt 0.748047 0.500000
vt 0.748047 0.500000
vt 0.962891 0.500000
vt 0.962891 0.500000
vt 0.962891 0.500000
vt 0.748047 0.500000
vt 0.962891 0.500000
vt 0.994141 0.500000
vt 0.994141 0.500000
vt 0.994141 0.500000
vt 0.748047 0.500000
vt 0.994141 0.500000
vt 0.748047 0.500000
vt 0.994141 0.500000
vt 0.994141 0.500000
vt 0.994141 0.500000
vt 0.748047 0.500000
vt 0.748047 0.500000
vt 0.748047 0.500000
vt 0.994141 0.500000
vt 0.962891 0.500000
vt 0.962891 0.500000
vt 0.962891 0.500000
vt 0.748047 0.500000
vt 0.962891 0.500000
vt 0.748047 0.500000
vt 0.748047 0.500000
vt 0.748047 0.500000
vn 0.0000 -0.0000 1.0000
vn 0.0000 0.0000 -1.0000
vn 1.0000 0.0000 0.0000
vn -1.0000 0.0000 0.0000
vn 0.0000 -1.0000 -0.0000
vn -0.0000 1.0000 0.0000
usemtl palette
s 1
f 1/1/1 2/2/1 3/3/1
f 4/4/1 2/2/1 1/1/1
f 5/5/1 1/1/1 3/3/1
f 6/6/1 4/7/1 1/8/1
f 6/9/1 1/1/1 5/5/1
f 7/10/1 2/2/1 4/4/1
f 7/11/1 4/7/1 6/6/1
f 8/12/1 2/2/1 7/10/1
f 9/13/1 5/5/1 3/3/1
f 10/14/1 5/5/1 9/13/1
f 11/15/1 6/6/1 5/16/1
f 11/17/1 5/5/1 10/14/1
f 12/18/1 7/10/1 6/9/1
f 12/19/1 6/6/1 11/15/1
f 13/20/1 8/21/1 7/11/1
f 13/22/1 7/10/1 12/18/1
f 14/23/1 2/2/1 8/12/1
f 14/24/1 8/21/1 13/20/1
f 15/25/1 2/2/1 14/23/1
f 16/26/1 2/2/1 15/25/1
f 17/27/1 10/28/1 9/29/1
f 18/30/1 13/22/1 12/18/1
f 18/31/1 10/28/1 17/27/1
f 18/30/1 11/17/1 10/14/1
f 18/30/1 12/18/1 11/17/1
f 18/30/1 15/25/1 14/23/1
f 18/30/1 14/23/1 13/22/1
f 19/32/1 16/33/1 15/34/1
f 19/35/1 15/25/1 18/30/1
f 20/36/1 16/33/1 19/32/1
f 21/37/1 18/30/1 17/38/1
f 21/37/1 19/35/1 18/30/1
f 21/37/1 20/39/1 19/35/1
f 22/40/1 20/39/1 21/37/1
f 23/41/1 24/42/1 25/43/1
f 26/44/1 27/45/1 24/46/1
f 26/47/1 24/42/1 23/41/1
f 28/48/1 29/49/1 27/50/1
f 28/51/1 27/45/1 26/44/1
f 30/52/1 29/49/1 28/48/1
f 31/53/1 32/54/1 33/55/1
f 34/56/1 35/57/1 32/58/1
f 34/59/1 32/54/1 31/53/1
f 36/60/1 37/61/1 35/62/1
f 36/63/1 35/57/1 34/56/1
f 38/64/1 37/61/1 36/60/1
f 39/65/2 40/66/2 41/67/2
f 41/67/2 40/66/2 42/68/2
f 43/69/2 44/70/2 45/71/2
f 45/71/2 44/70/2 46/72/2
f 47/73/2 48/74/2 49/75/2
f 49/75/2 48/74/2 50/76/2
f 51/77/3 52/78/3 53/79/3
f 51/80/3 54/81/3 52/82/3
f 55/83/3 56/84/3 54/85/3
f 55/86/3 54/81/3 51/80/3
f 57/87/3 51/77/3 53/79/3
f 57/87/3 55/83/3 51/77/3
f 58/88/3 56/84/3 55/83/3
f 58/88/3 55/83/3 57/87/3
f 59/89/3 60/90/3 61/91/3
f 62/92/3 60/90/3 59/89/3
f 63/93/3 64/94/3 65/95/3
f 66/96/3 64/94/3 63/93/3
f 67/97/3 66/98/3 63/99/3
f 68/100/3 66/98/3 67/97/3
f 69/101/4 70/102/4 71/103/4
f 71/103/4 70/102/4 72/104/4
f 71/105/4 72/106/4 73/107/4
f 73/107/4 72/106/4 74/108/4
f 75/109/4 76/110/4 77/111/4
f 77/111/4 76/110/4 78/112/4
f 79/113/4 80/114/4 81/115/4
f 80/116/4 82/117/4 81/118/4
f 82/119/4 83/120/4 84/121/4
f 81/118/4 82/117/4 84/122/4
f 79/113/4 81/115/4 85/123/4
f 81/115/4 84/121/4 85/123/4
f 84/121/4 83/120/4 86/124/4
f 85/123/4 84/121/4 86/124/4
f 87/125/5 88/126/5 89/127/5
f 90/128/5 88/126/5 87/125/5
f 91/129/6 92/130/6 93/131/6
f 93/131/6 92/130/6 94/132/6
f 91/129/6 93/131/6 95/133/6
f 91/129/6 95/133/6 96/134/6
f 91/129/6 96/134/6 97/135/6
f 94/132/6 92/130/6 98/136/6
f 97/135/6 99/137/6 100/138/6
f 99/137/6 98/136/6 100/138/6
f 91/129/6 97/135/6 100/138/6
f 100/138/6 98/136/6 101/139/6
f 98/136/6 92/130/6 102/140/6
f 101/139/6 98/136/6 102/140/6
f 91/129/6 100/138/6 103/141/6
f 91/129/6 103/141/6 104/142/6
f 91/129/6 104/142/6 105/143/6
f 102/140/6 92/130/6 106/144/6
f 91/129/6 105/143/6 107/145/6
f 105/143/6 106/144/6 107/145/6
f 106/144/6 92/130/6 108/146/6
f 107/145/6 106/144/6 108/146/6
f 109/147/6 110/148/6 111/149/6
f 111/149/6 110/148/6 112/150/6
f 111/151/6 112/152/6 113/153/6
f 112/150/6 110/148/6 114/154/6
f 113/153/6 112/152/6 114/155/6
f 113/156/6 114/157/6 115/158/6
f 114/154/6 110/148/6 116/159/6
f 115/158/6 114/157/6 116/160/6
f 116/159/6 110/148/6 117/161/6
f 118/162/6 119/163/6 120/164/6
f 119/165/6 121/166/6 122/167/6
f 120/164/6 119/163/6 122/168/6
f 120/169/6 122/170/6 123/171/6
f 122/167/6 121/166/6 124/172/6
f 123/171/6 122/170/6 124/173/6
f 123/174/6 124/172/6 125/175/6
f 124/172/6 121/166/6 126/176/6
f 125/175/6 124/172/6 126/176/6
